<svg width="126" height="24" viewBox="0 0 126 24" fill="none" xmlns="http://www.w3.org/2000/svg">
<path d="M3.05196 23.7139L4.80125 18.7114H12.245L13.985 23.7139H17.037L10.1794 4.81169H6.8576L0 23.7139H3.05196ZM5.63868 16.3118L8.44871 8.2451H8.59759L11.4076 16.3118H5.63868Z" fill="white"/>
<path d="M19.5656 23.7139H22.3477V15.0565C22.3477 13.2014 23.7899 11.8631 25.7625 11.8631C26.3394 11.8631 26.9907 11.9646 27.2141 12.0292V9.38957C26.9349 9.35265 26.3859 9.32496 26.0324 9.32496C24.3575 9.32496 22.9246 10.2664 22.4035 11.7893H22.2546V9.53724H19.5656V23.7139Z" fill="white"/>
<path d="M35.1301 24C39.159 24 41.7923 21.0742 41.7923 16.6902C41.7923 12.2784 39.159 9.35265 35.1301 9.35265C31.1011 9.35265 28.4679 12.2784 28.4679 16.6902C28.4679 21.0742 31.1011 24 35.1301 24ZM35.1394 21.6834C32.5061 21.6834 31.2779 19.4037 31.2779 16.6809C31.2779 13.9674 32.5061 11.66 35.1394 11.66C37.754 11.66 38.9822 13.9674 38.9822 16.6809C38.9822 19.4037 37.754 21.6834 35.1394 21.6834Z" fill="white"/>
<path d="M53.9513 17.8346C53.9606 20.2436 52.1554 21.388 50.5922 21.388C48.8709 21.388 47.6799 20.1513 47.6799 18.2223V9.53724H44.8977V18.5545C44.8977 22.071 46.8424 23.8985 49.5873 23.8985C51.7367 23.8985 53.1976 22.7725 53.8582 21.2588H54.0071V23.7139H56.7427V9.53724H53.9513V17.8346Z" fill="white"/>
<path d="M63.263 15.2965C63.263 13.0353 64.6587 11.7431 66.5941 11.7431C68.4829 11.7431 69.6274 12.9706 69.6274 15.0288V23.7139H72.4096V14.6966C72.4096 11.1893 70.4649 9.35265 67.5432 9.35265C65.3938 9.35265 63.9888 10.3402 63.3281 11.8446H63.1513V9.53724H60.4809V23.7139H63.263V15.2965Z" fill="white"/>
<path d="M81.491 23.9908C84.0963 23.9908 85.1198 22.4125 85.6223 21.508H85.8549V23.7139H88.5719V4.81169H85.7898V11.8354H85.6223C85.1198 10.9586 84.1708 9.35265 81.5096 9.35265C78.0575 9.35265 75.5173 12.0569 75.5173 16.6532C75.5173 21.2404 78.0203 23.9908 81.491 23.9908ZM82.1051 21.6372C79.6207 21.6372 78.3274 19.4683 78.3274 16.6256C78.3274 13.8105 79.5928 11.697 82.1051 11.697C84.5336 11.697 85.8363 13.6629 85.8363 16.6256C85.8363 19.6067 84.5057 21.6372 82.1051 21.6372Z" fill="white"/>
<path d="M92.2059 0.762979H94.2033V6.38687H94.9725V0.762979H96.97V0.0861429H92.2059V0.762979Z" fill="white"/>
<path d="M98.7898 3.54416C98.7898 2.71965 99.3202 2.25202 100.043 2.25202C100.731 2.25202 101.147 2.68273 101.147 3.43341V6.38687H101.879V3.38418C101.879 2.16895 101.228 1.5998 100.254 1.5998C99.5032 1.5998 99.0751 1.91052 98.8518 2.39969H98.7898V0.0861429H98.0578V6.38687H98.7898V3.54416Z" fill="white"/>
<path d="M105.216 6.48532C106.183 6.48532 106.89 6.00538 107.114 5.29163L106.407 5.09473C106.22 5.58698 105.789 5.8331 105.216 5.8331C104.356 5.8331 103.764 5.2824 103.73 4.27022H107.188V3.96257C107.188 2.20279 106.134 1.5998 105.141 1.5998C103.851 1.5998 102.995 2.6089 102.995 4.06102C102.995 5.51314 103.838 6.48532 105.216 6.48532ZM103.73 3.64261C103.779 2.90732 104.304 2.25202 105.141 2.25202C105.935 2.25202 106.444 2.84271 106.444 3.64261H103.73Z" fill="white"/>
<path d="M115.026 0.0861429V4.19639C115.026 5.11934 114.387 5.78387 113.326 5.78387C112.265 5.78387 111.626 5.11934 111.626 4.19639V0.0861429H110.857V4.25792C110.857 5.55006 111.831 6.49763 113.326 6.49763C114.821 6.49763 115.795 5.55006 115.795 4.25792V0.0861429H115.026Z" fill="white"/>
<path d="M117.467 6.4361C117.774 6.4361 118.025 6.1869 118.025 5.88232C118.025 5.57775 117.774 5.32855 117.467 5.32855C117.16 5.32855 116.908 5.57775 116.908 5.88232C116.908 6.1869 117.16 6.4361 117.467 6.4361Z" fill="white"/>
<path d="M122.912 1.66133H123.656C123.622 0.710678 122.738 0 121.51 0C120.294 0 119.339 0.701449 119.339 1.75977C119.339 2.6089 119.959 3.11345 120.951 3.39649L121.733 3.618C122.403 3.80259 122.998 4.03641 122.998 4.66402C122.998 5.35316 122.328 5.80849 121.448 5.80849C120.691 5.80849 120.021 5.47622 119.959 4.76247H119.165C119.239 5.79618 120.083 6.49763 121.448 6.49763C122.912 6.49763 123.743 5.69773 123.743 4.67632C123.743 3.49494 122.614 3.11345 121.956 2.94116L121.311 2.76888C120.84 2.64582 120.083 2.39969 120.083 1.72286C120.083 1.11986 120.641 0.676836 121.485 0.676836C122.254 0.676836 122.837 1.03987 122.912 1.66133Z" fill="white"/>
<path d="M125.442 6.4361C125.749 6.4361 126 6.1869 126 5.88232C126 5.57775 125.749 5.32855 125.442 5.32855C125.135 5.32855 124.883 5.57775 124.883 5.88232C124.883 6.1869 125.135 6.4361 125.442 6.4361Z" fill="white"/>
</svg>
